<svg width="27" height="27" fill="none" xmlns="http://www.w3.org/2000/svg"><path d="M25.688 23.125H24.28l-7.675-21.21c-.235-.704-.938-1.29-1.758-1.29h-2.754c-.82 0-1.524.586-1.758 1.29L2.66 23.124H1.312c-.527 0-.937.469-.937.938v1.875c0 .527.41.937.938.937h7.5c.468 0 .937-.41.937-.938v-1.875c0-.468-.469-.937-.938-.937H7.641l1.347-3.75h8.965l1.348 3.75h-1.113c-.528 0-.938.469-.938.938v1.875c0 .527.41.937.938.937h7.5c.468 0 .937-.41.937-.938v-1.875c0-.468-.469-.937-.938-.937zm-15-8.438L13.5 7.13l2.754 7.559h-5.567z" fill="#fff"/></svg>