<svg width="13" height="18" fill="none" xmlns="http://www.w3.org/2000/svg"><path d="M12.252 3.379 9.496.589A1.64 1.64 0 0 0 8.367.126H1.594C.697.125 0 .855 0 1.719V15.53c0 .897.697 1.594 1.594 1.594h9.562c.864 0 1.594-.697 1.594-1.594V4.508c0-.399-.2-.83-.498-1.13zm-1.229.996H8.5V1.852l2.523 2.523zm-9.43 11.156V1.72h5.313v3.453c0 .465.332.797.797.797h3.453v9.562H1.594zm1.063-1.594h7.438v-4.25l-.797-.763a.382.382 0 0 0-.565 0l-2.888 2.889-1.328-1.295a.382.382 0 0 0-.565 0l-1.295 1.294v2.126zM4.25 5.97c-.896 0-1.594.73-1.594 1.593 0 .897.698 1.594 1.594 1.594.863 0 1.594-.697 1.594-1.594 0-.863-.73-1.593-1.594-1.593z" fill="#000"/></svg>