<svg version="1.2" baseProfile="tiny-ps" xmlns="http://www.w3.org/2000/svg" width="113" height="88"><style>.shp0{fill:#e0e0e0}.shp1{fill:#c4c4c4}.shp2{fill:none;stroke:#e0e0e0}</style><path id="Layer" class="shp0" d="M5 0h102.04c2.76 0 5 2.23 5 5v78c0 2.77-2.24 5-5 5H5c-2.77 0-5-2.23-5-5V5c0-2.77 2.23-5 5-5z"/><path id="Layer" class="shp1" d="M112.32 36.82H98.1V0h9.22c2.76 0 5 2.24 5 5v31.82zM0 5c0-2.76 2.24-5 5-5h9.96v37.19H0V5z"/><path id="Layer" class="shp0" d="M9.22 25.59H6.97v2.33H5.8v-5.69h3.7v.95H6.97v1.47h2.25v.94z"/><path id="Layer" class="shp2" d="M12.16 10.46c0 2.29-1.84 4.15-4.11 4.15-2.26 0-4.1-1.86-4.1-4.15 0-2.3 1.84-4.15 4.1-4.15 2.27 0 4.11 1.85 4.11 4.15z"/><path id="Layer" fill-rule="evenodd" class="shp0" d="M104.39 27.1c0 .78-.17 1.39-.49 1.8-.33.42-.8.63-1.43.63-.62 0-1.09-.21-1.42-.62-.33-.41-.5-.99-.51-1.75v-1.05c0-.8.17-1.4.49-1.81.34-.41.81-.62 1.43-.62.62 0 1.1.21 1.42.62.33.4.5.99.51 1.75v1.05zm-1.13-1.15c0-.47-.07-.81-.2-1.03-.12-.21-.33-.32-.6-.32-.27 0-.46.1-.59.31-.12.2-.19.52-.2.95v1.39c0 .46.06.8.19 1.03.13.22.33.34.61.34.28 0 .47-.11.6-.33.12-.21.18-.54.19-.99v-1.35zm5.72 1.15c0 .78-.16 1.39-.49 1.8-.32.42-.8.63-1.43.63-.62 0-1.09-.21-1.42-.62-.33-.41-.5-.99-.5-1.75v-1.05c0-.8.16-1.4.49-1.81.33-.41.81-.62 1.43-.62.61 0 1.09.21 1.42.62.33.4.49.99.5 1.75v1.05zm-1.13-1.15c0-.47-.06-.81-.19-1.03-.13-.21-.33-.32-.6-.32-.27 0-.47.1-.59.31-.13.2-.2.52-.2.95v1.39c0 .46.06.8.18 1.03.13.22.33.34.61.34.28 0 .48-.11.6-.33.12-.21.19-.54.19-.99v-1.35z"/><path id="Layer" class="shp2" d="M101.26 7.68h8.78v7.98h-8.78V7.68z"/></svg>