<svg version="1.2" baseProfile="tiny-ps" xmlns="http://www.w3.org/2000/svg" width="144" height="41"><defs><linearGradient id="grd1" gradientUnits="userSpaceOnUse" x1="143.99" y1="20.836" x2="126.606" y2="20.836"><stop offset="0" stop-color="#5b40d7"/><stop offset="1" stop-color="#e85f62"/></linearGradient><linearGradient id="grd2" gradientUnits="userSpaceOnUse" x1="-.701" y1="20.03" x2="17.578" y2="20.03"><stop offset="0" stop-color="#5b40d7"/><stop offset="1" stop-color="#e85f62"/></linearGradient></defs><style>.shp3{fill:#fff}.shp4{fill:none;stroke:#fff}</style><path id="Layer" d="M5.32 0h133c2.77 0 5 2.23 5 5v31c0 2.77-2.23 5-5 5h-133c-2.76 0-5-2.23-5-5V5c0-2.77 2.24-5 5-5z" style="fill:#e0e0e0"/><path id="Layer" d="M143.32 36c0 2.76-2.23 5-5 5h-11V0h11c2.77 0 5 2.24 5 5v31z" style="fill:url(#grd1)"/><path id="Layer" d="M0 5c0-2.76 2.24-5 5-5h11.82v40.73H5c-2.76 0-5-2.24-5-5V5z" style="fill:url(#grd2)"/><path id="Layer" class="shp3" d="M10.15 27.58H7.9v2.33H6.73v-5.69h3.7v.95H7.9v1.47h2.25v.94z"/><path id="Layer" class="shp4" d="M13.74 11.45c0 2.53-2.09 4.6-4.68 4.6s-4.68-2.07-4.68-4.6c0-2.52 2.09-4.59 4.68-4.59s4.68 2.07 4.68 4.59z"/><path id="Layer" fill-rule="evenodd" class="shp3" d="M134.44 29.65c0 .78-.16 1.39-.48 1.8-.33.42-.81.63-1.43.63-.62 0-1.1-.21-1.43-.62-.32-.4-.49-.99-.5-1.75v-1.05c0-.79.16-1.4.49-1.81.33-.41.81-.62 1.43-.62.62 0 1.09.21 1.42.62.33.4.5.99.5 1.75v1.05zm-1.12-1.15c0-.47-.07-.81-.2-1.03-.13-.21-.33-.32-.6-.32-.27 0-.46.1-.59.31-.13.2-.19.52-.2.95v1.39c0 .46.06.81.19 1.03.12.23.33.34.61.34.27 0 .47-.11.59-.33.13-.21.19-.54.2-.99V28.5zm5.72 1.15c0 .78-.16 1.39-.49 1.8-.33.42-.8.63-1.43.63-.62 0-1.09-.21-1.42-.62-.33-.4-.5-.99-.51-1.75v-1.05c0-.79.17-1.4.5-1.81.33-.41.8-.62 1.42-.62.62 0 1.1.21 1.42.62.33.4.5.99.51 1.75v1.05zm-1.13-1.15c0-.47-.07-.81-.2-1.03-.12-.21-.32-.32-.6-.32-.26 0-.46.1-.59.31-.12.2-.19.52-.2.95v1.39c0 .46.07.81.19 1.03.13.23.33.34.61.34.28 0 .48-.11.6-.33.12-.21.18-.54.19-.99V28.5z"/><path id="Layer" class="shp4" d="M130.82 8.5h10v9h-10v-9z"/></svg>