<svg version="1.2" baseProfile="tiny-ps" xmlns="http://www.w3.org/2000/svg" width="260" height="180"><defs><clipPath clipPathUnits="userSpaceOnUse" id="cp1"><path d="m-55.2-447.54 374.53-.34.74 811.47-374.52.35-.75-811.48z"/></clipPath><clipPath clipPathUnits="userSpaceOnUse" id="cp2"><path d="m51.09 8.07 163.79-.15.15 163.89-163.79.15-.15-163.89z"/></clipPath></defs><style>.shp3{fill:#4f4f4f}</style><g id="Clip-Path" clip-path="url(#cp1)"><g id="Layer"><path id="Layer" fill-rule="evenodd" d="M33.61 67.56h-5.33c.07.14.14.34.21.55l2.29-.01v1.16h-2.09c.07.61.14 1.29.14 1.97v5.01c0 2.72-.87 4.82-2.62 6.25-1.75 1.42-4.18 2.17-7.21 2.17l-15.1.02c-.6 0-1.07-.14-1.28-.48-.27-.27-.4-.67-.4-1.28l-.01-5.63c0-.55.14-1.02.41-1.29.27-.27.67-.41 1.28-.41l12.8-.01c.4 0 .74-.14.94-.41.2-.27.34-.61.34-1.02 0-.54-.14-.95-.34-1.22-.2-.2-.54-.4-.94-.4l-7.15-1.02c-2.22-.33-4.04-1.08-5.39-2.23l-.14-.13 2.84-.01-.01-1.15h-3.7c-.07-.13-.2-.34-.27-.54 0-.07-.07-.07-.07-.13l6.87-.01v-.95H4.49c-.2-.88-.33-1.76-.34-2.84V58.5c0-2.72.87-4.75 2.62-6.25 1.75-1.42 4.18-2.17 7.28-2.17l13.34-.02c.61 0 1.08.14 1.21.48.27.27.41.68.41 1.29l.01 5.63c0 .54-.14 1.01-.41 1.29-.27.27-.67.4-1.28.4l-11.12.01c-.4 0-.74.14-.94.41-.2.27-.34.61-.34 1.02 0 .47.14.81.34 1.08.2.28.54.48.95.48l7.14.94c2.22.34 4.04 1.08 5.39 2.23.34.34.61.61.88 1.02h3.98v1.22zm218.81-.27c.07.13.14.34.2.54h2.3v1.15h-2.09c.07.62.13 1.29.13 1.97l.01 5.02c0 2.71-.87 4.82-2.62 6.24-1.76 1.43-4.18 2.18-7.21 2.18l-15.1.02c-.54 0-1.01-.14-1.28-.41-.27-.27-.4-.68-.4-1.29l-.01-5.63c0-.54.13-1.02.4-1.29s.68-.41 1.28-.41l12.88-.01c.4 0 .74-.13.94-.41.2-.27.33-.61.33-1.01 0-.55-.13-.95-.33-1.22-.21-.21-.54-.41-.95-.41l-7.14-1.01c-2.23-.34-4.05-1.08-5.39-2.24l-.14-.13h2.76v-1.16l-3.7.01c-.07-.14-.21-.34-.27-.54 0-.07-.07-.07-.07-.14l6.94-.01v-.95l-5.19.01c-.2-.88-.34-1.77-.34-2.85v-5.02c-.01-2.71.87-4.75 2.62-6.24 1.75-1.43 4.17-2.18 7.27-2.18l13.35-.01c.6 0 1.07.13 1.28.47.27.27.4.68.4 1.29l.01 5.63c0 .54-.14 1.02-.4 1.29-.27.27-.68.41-1.28.41l-11.12.01c-.41 0-.75.13-.95.4-.2.28-.33.62-.33 1.02 0 .48.13.82.34 1.09.2.27.53.47.94.47l7.14.95c2.23.33 4.05 1.08 5.4 2.23.33.34.6.61.87 1.02l3.98-.01v1.15l-5.46.01zM62.17 51.8v5.83c0 .54-.13 1.02-.4 1.29s-.68.41-1.28.41h-7.01l.01 7.06 2.83-.01v.95l-4.85.01v.74h1.95v1.09h-1.95l.01 13.7c0 .54-.13 1.02-.4 1.29s-.68.41-1.28.41l-7.75.01c-.54 0-1.01-.14-1.28-.41-.27-.27-.41-.68-.41-1.29l-.01-13.77h2.9l-.01-1.09-2.89.01v-.75h5.79v-.95h-3.77l-.01-7.05h-7.01c-.54 0-1.01-.13-1.28-.4-.27-.28-.4-.68-.4-1.29l-.01-5.84c0-.54.13-1.01.4-1.29.27-.27.68-.4 1.28-.4l25.21-.03c.6 0 1.08.14 1.35.41.27.27.4.75.27 1.36zm27.76-.03.01 5.83c0 .55-.14 1.02-.41 1.29-.27.27-.67.41-1.28.41l-4.65.01.01 7.05h-4.72v.95h2.7v.75h-1.95v1.08h1.95l.01 6.31h4.65c.53 0 1.01.13 1.28.4s.4.68.4 1.29l.01 5.63c0 .54-.14 1.02-.41 1.29-.27.27-.67.41-1.28.41l-20.35.02c-.54 0-1.01-.14-1.28-.41-.27-.27-.4-.68-.4-1.29l-.01-5.7c0-.54.13-1.01.4-1.28.27-.28.68-.41 1.28-.41l4.72-.01v-6.31l-2.36.01V68h2.35v-.75l-3.1.01v-.95l5.12-.01v-7.05H67.9c-.54 0-1.01-.13-1.28-.4-.27-.28-.4-.68-.41-1.29v-5.84c0-.54.13-1.01.4-1.29.27-.27.68-.4 1.28-.4l20.35-.02c.54 0 1.02.13 1.29.4.26.28.4.75.4 1.36zm30.46-.03.01 5.84c0 .54-.14 1.01-.41 1.28-.27.28-.67.41-1.28.41l-9.57.01c-1.01 0-1.75.21-2.22.61-.47.41-.74 1.02-.74 1.84l.01 4.61h3.16v.95h-5.19l.01.75 3.03-.01v1.09h-3.03v4c0 .82.27 1.43.74 1.77.47.34 1.22.54 2.23.54l9.57-.01c.54 0 1.01.13 1.28.4s.4.68.4 1.29l.01 5.7c0 .54-.14 1.02-.41 1.29-.26.27-.67.41-1.28.41l-11.65.01c-3.98 0-6.88-.74-8.83-2.37-1.96-1.56-2.91-4.06-2.91-7.39v-5.7h3.9v-1.09l-3.91.01v-.75h6.81v-.95h-4.79v-6.44c0-3.33.94-5.77 2.89-7.4 1.89-1.63 4.85-2.45 8.83-2.45l11.65-.01c.54 0 1.02.14 1.28.41.27.27.41.74.41 1.35zm34.32 14.49 2.35-.01v.95l-4.04.01c.07.27.07.47.14.74h1.14v1.09h-.94l.01 13.77c0 .54-.13 1.02-.4 1.29s-.67.4-1.28.41h-7.35c-.53 0-1.01-.13-1.28-.4s-.4-.68-.4-1.29l-.01-9.36c0-.55-.14-.95-.41-1.22-.27-.27-.6-.41-1.14-.41l-6.34.01.01 11.05c0 .55-.13 1.02-.4 1.29s-.67.41-1.28.41l-7.41.01c-.54 0-1.01-.14-1.28-.41-.27-.27-.41-.68-.41-1.29l-.01-13.77h4.24v-1.09l-4.24.01v-.75h7.14v-.95H126l-.02-14.58c0-.55.14-1.02.41-1.29.27-.27.67-.41 1.28-.41l7.41-.01c.54 0 1.01.14 1.28.41.27.27.41.68.41 1.29l.01 11.05h1.88l4.91-11.19c.2-.55.47-.95.88-1.23.4-.2.87-.34 1.48-.34h7.35c.53 0 .87.13 1.07.4.21.27.14.61-.06 1.16l-4.84 11.19c1.75.07 3.16.75 4.24 1.9.41.47.75 1.01 1.02 1.62v-.06zm32.33-14.55v5.63c.01.54-.13 1.02-.4 1.29s-.67.41-1.28.41l-13.21.01.01 3.73 9.3-.01c.53 0 1.01.14 1.28.41.27.27.4.68.4 1.29v1.83h2.5v.95h-4.52v.75l1.62-.01v1.09h-1.62l.01.54c0 .55-.14 1.02-.41 1.29-.27.27-.67.41-1.28.41l-9.3.01.01 4.14 13.2-.02c.54 0 1.02.14 1.29.41.27.27.4.68.4 1.29l.01 5.63c0 .54-.14 1.02-.41 1.29-.27.27-.67.41-1.28.41l-22.17.02c-.54 0-1.01-.14-1.28-.41-.27-.27-.4-.68-.4-1.29L159.49 69h5.33v-1.09l-5.33.01v-.75l8.16-.01-.01-.95-6.13.01-.01-14.58c0-.55.13-1.02.4-1.29s.67-.41 1.28-.41l22.17-.02c.54 0 1.01.13 1.28.4.27.28.41.75.41 1.36zm36.81 15.43-4.72.01.07.06c.13.21.34.48.47.68h1.28v1.09h-.74c.34.95.54 1.96.54 3.12l.01 10.17c0 .54-.13 1.02-.4 1.29s-.67.41-1.28.41h-7.41c-.54.01-1.01-.13-1.28-.4s-.41-.68-.41-1.29l-.01-7.32c0-.68-.13-1.23-.4-1.56-.27-.34-.74-.48-1.42-.48l-6.67.01.01 9.36c0 .54-.13 1.02-.4 1.29s-.68.4-1.28.41h-7.35c-.54 0-1.01-.13-1.28-.4s-.41-.68-.41-1.29l-.01-13.3h5.86v-1.09l-5.86.01v-.75l8.69-.01v-.94h-6.67l-.01-14.58c0-.54.13-1.02.4-1.29s.67-.41 1.28-.41l15.9-.01c3.51-.01 6 .74 7.35 2.23 1.35 1.49 2.03 3.39 2.03 5.76v2.24c0 1.36-.2 2.51-.6 3.46-.41.95-1.08 1.63-2.09 2.04.81.06 1.48.27 2.16.6h4.65v.88zm-14.7-6.23c0-.67-.13-1.22-.4-1.62-.27-.48-.88-.68-1.69-.68h-3.57v6.18l3.58-.01c.81 0 1.41-.27 1.68-.68.27-.47.4-1.01.4-1.62v-1.57zm45.72 31.1.01 5.63c0 .54-.14 1.01-.41 1.29-.27.27-.67.4-1.28.4l-13.21.02.01 3.73 9.3-.01c.54 0 1.01.13 1.28.4s.4.68.4 1.29l.01 1.83h2.49v.95h-4.52l.01.82h1.61v1.08h-1.61v.55c0 .54-.14 1.01-.41 1.29-.27.27-.67.4-1.28.4l-9.3.01.01 4.14 13.21-.01c.53 0 1.01.13 1.28.4.27.28.4.68.4 1.29l.01 5.63c0 .54-.14 1.02-.41 1.29-.26.27-.67.41-1.28.41l-22.17.02c-.54 0-1.01-.13-1.28-.41-.27-.27-.4-.67-.4-1.28l-.02-13.77 5.33-.01v-1.08h-5.33v-.75h8.16v-1.02l-6.14.01-.01-14.59c0-.54.13-1.02.4-1.29s.68-.4 1.28-.4l22.17-.02c.54-.01 1.02.13 1.28.4.27.27.41.75.41 1.36zm-98.64 15.76h-4.72l.07.07c.13.2.33.47.47.68h1.28v1.08h-.74c.34.95.54 1.97.54 3.12l.01 10.18c0 .54-.13 1.01-.4 1.28-.27.28-.68.41-1.28.41l-7.42.01c-.53 0-1.01-.14-1.28-.41-.27-.27-.4-.67-.4-1.28l-.01-7.33c0-.68-.14-1.22-.4-1.56-.27-.34-.75-.47-1.42-.47h-6.67l.01 9.43c0 .54-.14 1.02-.41 1.29-.27.27-.67.41-1.28.41l-7.34.01c-.54 0-1.01-.14-1.28-.41-.27-.27-.41-.68-.41-1.29l-.01-13.29 5.86-.01v-1.02l-5.86.01v-.75l8.69-.01v-.94h-6.67l-.02-14.65c0-.54.14-1.02.41-1.29.27-.27.67-.41 1.28-.41l15.9-.01c3.51-.01 6 .74 7.35 2.23 1.35 1.49 2.02 3.39 2.03 5.76v2.24c0 1.36-.2 2.51-.6 3.46-.41.95-1.08 1.63-2.09 2.04.81.07 1.48.27 2.16.61l4.65-.01v.82zm-14.7-6.16c0-.68-.14-1.22-.41-1.63-.27-.47-.87-.68-1.68-.68l-3.57.01v6.17h3.57c.81-.01 1.42-.28 1.69-.68.27-.48.4-1.02.4-1.63v-1.56zm84.04 4.94v1.02h-4.31c.06.2.06.41.07.68h1.28v1.15h-1.28l.01 13.77c0 .54-.14 1.02-.4 1.29-.27.27-.68.41-1.28.41l-15.03.01c-3.98.01-6.88-.74-8.83-2.36-1.96-1.56-2.9-4.07-2.91-7.39v-5.7l4.11-.01v-1.15l-4.11.01v-.68l7-.01v-1.09l-4.98.01-.01-6.44c0-3.33.94-5.77 2.89-7.4 1.89-1.56 4.85-2.38 8.83-2.38l11.93-.01c.53 0 1.01.13 1.28.4s.4.68.4 1.29l.01 5.83c0 .55-.14 1.02-.41 1.29-.26.28-.67.41-1.28.41l-9.9.01c-1.01 0-1.75.21-2.23.61-.47.41-.74 1.02-.73 1.84v5.62l-2.02.01v6.03c.01.82.21 1.36.54 1.77.34.34.88.54 1.62.54l4.65-.01v-7.53c0-.27 0-.54.06-.74h2.02c.07-.27.21-.48.34-.61.2-.21.47-.34.88-.41v-.07l11.79-.01zm-34.1.03v1.02h-4.51c.06.27.06.48.13.68h1.48v1.15h-1.34c.06.34.06.75.07 1.09l.01 12.68c0 .55-.14 1.02-.41 1.29-.27.27-.67.41-1.28.41l-7.21.01c-.67 0-1.14-.14-1.41-.41-.34-.27-.48-.68-.48-1.29v-6.71l-8.43.01.01 6.71c0 .54-.13 1.02-.4 1.29s-.68.41-1.28.41h-7.01c-.54 0-1.01-.13-1.28-.4s-.41-.68-.41-1.29l-.01-12.68c0-.34 0-.68.07-1.09h4.18v-1.16l-3.98.01c.07-.21.07-.48.13-.68l6.74-.01v-.95l-4.45.01c.34-1.16.74-2.38 1.28-3.8l4.1-10.99c.2-.55.47-.96.88-1.23.4-.27.94-.4 1.55-.4l12.87-.02c.6 0 1.08.14 1.48.41.4.27.67.68.88 1.22l4.19 10.92c.54 1.42 1.01 2.71 1.28 3.79h2.56zm-13.28 1.03-2.23-7.19c-.13-.27-.26-.47-.4-.61a.619.619 0 0 0-.47-.2h-1.21a.77.77 0 0 0-.48.2c-.13.14-.27.34-.4.62l-2.22 7.19 7.41-.01zm-57.07-.96v1.01l-4.52.01c.07.27.07.47.14.68l1.48-.01v1.16h-1.35c.07.34.07.74.07 1.08l.01 12.69c0 .54-.13 1.01-.4 1.29-.27.27-.67.4-1.28.4l-7.21.01c-.68 0-1.15-.13-1.42-.4-.33-.28-.47-.68-.47-1.29l-.01-6.72-8.42.01.01 6.71c0 .55-.14 1.02-.41 1.29-.27.28-.67.41-1.28.41l-7.01.01c-.53 0-1.01-.14-1.28-.41-.27-.27-.4-.68-.4-1.29l-.01-12.68c0-.34 0-.68.06-1.08l4.18-.01v-1.15h-3.98c.07-.2.07-.47.14-.68h6.74v-.95h-4.45c.33-1.15.74-2.37 1.28-3.8l4.16-10.99c.21-.54.47-.95.88-1.22.4-.27.94-.41 1.55-.41l12.8-.01c.61 0 1.08.13 1.48.4.41.27.68.68.88 1.22l4.19 10.92c.54 1.42 1.01 2.71 1.28 3.8h2.57zm-13.28 1.02-2.23-7.18c-.13-.27-.27-.48-.4-.61-.14-.14-.27-.21-.48-.21h-1.21c-.13.01-.34.07-.47.21-.14.14-.27.34-.41.61l-2.21 7.19 7.41-.01zm-21.3-.99v1.01l-4.31.01c.07.2.07.41.07.68h1.28v1.15H82.3l.01 13.77c0 .54-.13 1.02-.4 1.29s-.67.41-1.28.41l-15.03.01c-3.97 0-6.87-.74-8.83-2.37-1.95-1.55-2.9-4.06-2.9-7.39l-.01-5.69 4.11-.01v-1.15h-4.11v-.68h7.01v-1.09l-4.99.01v-6.45c-.01-3.32.93-5.76 2.89-7.39 1.88-1.56 4.85-2.38 8.82-2.38l11.93-.02c.54 0 1.01.14 1.28.41.27.27.41.68.41 1.29v5.83c0 .55-.13 1.02-.4 1.29s-.67.41-1.28.41l-9.91.01c-1.01 0-1.75.2-2.22.61-.47.41-.74 1.02-.74 1.83l.01 5.63h-2.03l.01 6.04c0 .82.2 1.36.54 1.76.34.34.88.55 1.62.55l4.65-.01-.01-7.53c0-.27 0-.54.07-.74l2.02-.01c.07-.27.2-.47.34-.61.2-.2.47-.34.87-.4v-.07l11.79-.01z" style="opacity:.6;fill:#1f2b4e"/><g id="Clip-Path" clip-path="url(#cp2)"><g id="Layer"><path id="Layer" fill-rule="evenodd" d="M33.61 67.56h-5.33c.07.14.14.34.21.55l2.29-.01v1.16h-2.09c.07.61.14 1.29.14 1.97v5.01c0 2.72-.87 4.82-2.62 6.25-1.75 1.42-4.18 2.17-7.21 2.17l-15.1.02c-.6 0-1.07-.14-1.28-.48-.27-.27-.4-.67-.4-1.28l-.01-5.63c0-.55.14-1.02.41-1.29.27-.27.67-.41 1.28-.41l12.8-.01c.4 0 .74-.14.94-.41.2-.27.34-.61.34-1.02 0-.54-.14-.95-.34-1.22-.2-.2-.54-.4-.94-.4l-7.15-1.02c-2.22-.33-4.04-1.08-5.39-2.23l-.14-.13 2.84-.01-.01-1.15h-3.7c-.07-.13-.2-.34-.27-.54 0-.07-.07-.07-.07-.13l6.87-.01v-.95H4.49c-.2-.88-.33-1.76-.34-2.84V58.5c0-2.72.87-4.75 2.62-6.25 1.75-1.42 4.18-2.17 7.28-2.17l13.34-.02c.61 0 1.08.14 1.21.48.27.27.41.68.41 1.29l.01 5.63c0 .54-.14 1.01-.41 1.29-.27.27-.67.4-1.28.4l-11.12.01c-.4 0-.74.14-.94.41-.2.27-.34.61-.34 1.02 0 .47.14.81.34 1.08.2.28.54.48.95.48l7.14.94c2.22.34 4.04 1.08 5.39 2.23.34.34.61.61.88 1.02h3.98v1.22zm218.81-.27c.07.13.14.34.2.54h2.3v1.15h-2.09c.07.62.13 1.29.13 1.97l.01 5.02c0 2.71-.87 4.82-2.62 6.24-1.76 1.43-4.18 2.18-7.21 2.18l-15.1.02c-.54 0-1.01-.14-1.28-.41-.27-.27-.4-.68-.4-1.29l-.01-5.63c0-.54.13-1.02.4-1.29s.68-.41 1.28-.41l12.88-.01c.4 0 .74-.13.94-.41.2-.27.33-.61.33-1.01 0-.55-.13-.95-.33-1.22-.21-.21-.54-.41-.95-.41l-7.14-1.01c-2.23-.34-4.05-1.08-5.39-2.24l-.14-.13h2.76v-1.16l-3.7.01c-.07-.14-.21-.34-.27-.54 0-.07-.07-.07-.07-.14l6.94-.01v-.95l-5.19.01c-.2-.88-.34-1.77-.34-2.85v-5.02c-.01-2.71.87-4.75 2.62-6.24 1.75-1.43 4.17-2.18 7.27-2.18l13.35-.01c.6 0 1.07.13 1.28.47.27.27.4.68.4 1.29l.01 5.63c0 .54-.14 1.02-.4 1.29-.27.27-.68.41-1.28.41l-11.12.01c-.41 0-.75.13-.95.4-.2.28-.33.62-.33 1.02 0 .48.13.82.34 1.09.2.27.53.47.94.47l7.14.95c2.23.33 4.05 1.08 5.4 2.23.33.34.6.61.87 1.02l3.98-.01v1.15l-5.46.01zM62.17 51.8v5.83c0 .54-.13 1.02-.4 1.29s-.68.41-1.28.41h-7.01l.01 7.06 2.83-.01v.95l-4.85.01v.74h1.95v1.09h-1.95l.01 13.7c0 .54-.13 1.02-.4 1.29s-.68.41-1.28.41l-7.75.01c-.54 0-1.01-.14-1.28-.41-.27-.27-.41-.68-.41-1.29l-.01-13.77h2.9l-.01-1.09-2.89.01v-.75h5.79v-.95h-3.77l-.01-7.05h-7.01c-.54 0-1.01-.13-1.28-.4-.27-.28-.4-.68-.4-1.29l-.01-5.84c0-.54.13-1.01.4-1.29.27-.27.68-.4 1.28-.4l25.21-.03c.6 0 1.08.14 1.35.41.27.27.4.75.27 1.36zm27.76-.03.01 5.83c0 .55-.14 1.02-.41 1.29-.27.27-.67.41-1.28.41l-4.65.01.01 7.05h-4.72v.95h2.7v.75h-1.95v1.08h1.95l.01 6.31h4.65c.53 0 1.01.13 1.28.4s.4.68.4 1.29l.01 5.63c0 .54-.14 1.02-.41 1.29-.27.27-.67.41-1.28.41l-20.35.02c-.54 0-1.01-.14-1.28-.41-.27-.27-.4-.68-.4-1.29l-.01-5.7c0-.54.13-1.01.4-1.28.27-.28.68-.41 1.28-.41l4.72-.01v-6.31l-2.36.01V68h2.35v-.75l-3.1.01v-.95l5.12-.01v-7.05H67.9c-.54 0-1.01-.13-1.28-.4-.27-.28-.4-.68-.41-1.29v-5.84c0-.54.13-1.01.4-1.29.27-.27.68-.4 1.28-.4l20.35-.02c.54 0 1.02.13 1.29.4.26.28.4.75.4 1.36zm30.46-.03.01 5.84c0 .54-.14 1.01-.41 1.28-.27.28-.67.41-1.28.41l-9.57.01c-1.01 0-1.75.21-2.22.61-.47.41-.74 1.02-.74 1.84l.01 4.61h3.16v.95h-5.19l.01.75 3.03-.01v1.09h-3.03v4c0 .82.27 1.43.74 1.77.47.34 1.22.54 2.23.54l9.57-.01c.54 0 1.01.13 1.28.4s.4.68.4 1.29l.01 5.7c0 .54-.14 1.02-.41 1.29-.26.27-.67.41-1.28.41l-11.65.01c-3.98 0-6.88-.74-8.83-2.37-1.96-1.56-2.91-4.06-2.91-7.39v-5.7h3.9v-1.09l-3.91.01v-.75h6.81v-.95h-4.79v-6.44c0-3.33.94-5.77 2.89-7.4 1.89-1.63 4.85-2.45 8.83-2.45l11.65-.01c.54 0 1.02.14 1.28.41.27.27.41.74.41 1.35zm34.32 14.49 2.35-.01v.95l-4.04.01c.07.27.07.47.14.74h1.14v1.09h-.94l.01 13.77c0 .54-.13 1.02-.4 1.29s-.67.4-1.28.41h-7.35c-.53 0-1.01-.13-1.28-.4s-.4-.68-.4-1.29l-.01-9.36c0-.55-.14-.95-.41-1.22-.27-.27-.6-.41-1.14-.41l-6.34.01.01 11.05c0 .55-.13 1.02-.4 1.29s-.67.41-1.28.41l-7.41.01c-.54 0-1.01-.14-1.28-.41-.27-.27-.41-.68-.41-1.29l-.01-13.77h4.24v-1.09l-4.24.01v-.75h7.14v-.95H126l-.02-14.58c0-.55.14-1.02.41-1.29.27-.27.67-.41 1.28-.41l7.41-.01c.54 0 1.01.14 1.28.41.27.27.41.68.41 1.29l.01 11.05h1.88l4.91-11.19c.2-.55.47-.95.88-1.23.4-.2.87-.34 1.48-.34h7.35c.53 0 .87.13 1.07.4.21.27.14.61-.06 1.16l-4.84 11.19c1.75.07 3.16.75 4.24 1.9.41.47.75 1.01 1.02 1.62v-.06zm32.33-14.55v5.63c.01.54-.13 1.02-.4 1.29s-.67.41-1.28.41l-13.21.01.01 3.73 9.3-.01c.53 0 1.01.14 1.28.41.27.27.4.68.4 1.29v1.83h2.5v.95h-4.52v.75l1.62-.01v1.09h-1.62l.01.54c0 .55-.14 1.02-.41 1.29-.27.27-.67.41-1.28.41l-9.3.01.01 4.14 13.2-.02c.54 0 1.02.14 1.29.41.27.27.4.68.4 1.29l.01 5.63c0 .54-.14 1.02-.41 1.29-.27.27-.67.41-1.28.41l-22.17.02c-.54 0-1.01-.14-1.28-.41-.27-.27-.4-.68-.4-1.29L159.49 69h5.33v-1.09l-5.33.01v-.75l8.16-.01-.01-.95-6.13.01-.01-14.58c0-.55.13-1.02.4-1.29s.67-.41 1.28-.41l22.17-.02c.54 0 1.01.13 1.28.4.27.28.41.75.41 1.36zm36.81 15.43-4.72.01.07.06c.13.21.34.48.47.68h1.28v1.09h-.74c.34.95.54 1.96.54 3.12l.01 10.17c0 .54-.13 1.02-.4 1.29s-.67.41-1.28.41h-7.41c-.54.01-1.01-.13-1.28-.4s-.41-.68-.41-1.29l-.01-7.32c0-.68-.13-1.23-.4-1.56-.27-.34-.74-.48-1.42-.48l-6.67.01.01 9.36c0 .54-.13 1.02-.4 1.29s-.68.4-1.28.41h-7.35c-.54 0-1.01-.13-1.28-.4s-.41-.68-.41-1.29l-.01-13.3h5.86v-1.09l-5.86.01v-.75l8.69-.01v-.94h-6.67l-.01-14.58c0-.54.13-1.02.4-1.29s.67-.41 1.28-.41l15.9-.01c3.51-.01 6 .74 7.35 2.23 1.35 1.49 2.03 3.39 2.03 5.76v2.24c0 1.36-.2 2.51-.6 3.46-.41.95-1.08 1.63-2.09 2.04.81.06 1.48.27 2.16.6h4.65v.88zm-14.7-6.23c0-.67-.13-1.22-.4-1.62-.27-.48-.88-.68-1.69-.68h-3.57v6.18l3.58-.01c.81 0 1.41-.27 1.68-.68.27-.47.4-1.01.4-1.62v-1.57zm45.72 31.1.01 5.63c0 .54-.14 1.01-.41 1.29-.27.27-.67.4-1.28.4l-13.21.02.01 3.73 9.3-.01c.54 0 1.01.13 1.28.4s.4.68.4 1.29l.01 1.83h2.49v.95h-4.52l.01.82h1.61v1.08h-1.61v.55c0 .54-.14 1.01-.41 1.29-.27.27-.67.4-1.28.4l-9.3.01.01 4.14 13.21-.01c.53 0 1.01.13 1.28.4.27.28.4.68.4 1.29l.01 5.63c0 .54-.14 1.02-.41 1.29-.26.27-.67.41-1.28.41l-22.17.02c-.54 0-1.01-.13-1.28-.41-.27-.27-.4-.67-.4-1.28l-.02-13.77 5.33-.01v-1.08h-5.33v-.75h8.16v-1.02l-6.14.01-.01-14.59c0-.54.13-1.02.4-1.29s.68-.4 1.28-.4l22.17-.02c.54-.01 1.02.13 1.28.4.27.27.41.75.41 1.36zm-98.64 15.76h-4.72l.07.07c.13.2.33.47.47.68h1.28v1.08h-.74c.34.95.54 1.97.54 3.12l.01 10.18c0 .54-.13 1.01-.4 1.28-.27.28-.68.41-1.28.41l-7.42.01c-.53 0-1.01-.14-1.28-.41-.27-.27-.4-.67-.4-1.28l-.01-7.33c0-.68-.14-1.22-.4-1.56-.27-.34-.75-.47-1.42-.47h-6.67l.01 9.43c0 .54-.14 1.02-.41 1.29-.27.27-.67.41-1.28.41l-7.34.01c-.54 0-1.01-.14-1.28-.41-.27-.27-.41-.68-.41-1.29l-.01-13.29 5.86-.01v-1.02l-5.86.01v-.75l8.69-.01v-.94h-6.67l-.02-14.65c0-.54.14-1.02.41-1.29.27-.27.67-.41 1.28-.41l15.9-.01c3.51-.01 6 .74 7.35 2.23 1.35 1.49 2.02 3.39 2.03 5.76v2.24c0 1.36-.2 2.51-.6 3.46-.41.95-1.08 1.63-2.09 2.04.81.07 1.48.27 2.16.61l4.65-.01v.82zm-14.7-6.16c0-.68-.14-1.22-.41-1.63-.27-.47-.87-.68-1.68-.68l-3.57.01v6.17h3.57c.81-.01 1.42-.28 1.69-.68.27-.48.4-1.02.4-1.63v-1.56zm84.04 4.94v1.02h-4.31c.06.2.06.41.07.68h1.28v1.15h-1.28l.01 13.77c0 .54-.14 1.02-.4 1.29-.27.27-.68.41-1.28.41l-15.03.01c-3.98.01-6.88-.74-8.83-2.36-1.96-1.56-2.9-4.07-2.91-7.39v-5.7l4.11-.01v-1.15l-4.11.01v-.68l7-.01v-1.09l-4.98.01-.01-6.44c0-3.33.94-5.77 2.89-7.4 1.89-1.56 4.85-2.38 8.83-2.38l11.93-.01c.53 0 1.01.13 1.28.4s.4.68.4 1.29l.01 5.83c0 .55-.14 1.02-.41 1.29-.26.28-.67.41-1.28.41l-9.9.01c-1.01 0-1.75.21-2.23.61-.47.41-.74 1.02-.73 1.84v5.62l-2.02.01v6.03c.01.82.21 1.36.54 1.77.34.34.88.54 1.62.54l4.65-.01v-7.53c0-.27 0-.54.06-.74h2.02c.07-.27.21-.48.34-.61.2-.21.47-.34.88-.41v-.07l11.79-.01zm-34.1.03v1.02h-4.51c.06.27.06.48.13.68h1.48v1.15h-1.34c.06.34.06.75.07 1.09l.01 12.68c0 .55-.14 1.02-.41 1.29-.27.27-.67.41-1.28.41l-7.21.01c-.67 0-1.14-.14-1.41-.41-.34-.27-.48-.68-.48-1.29v-6.71l-8.43.01.01 6.71c0 .54-.13 1.02-.4 1.29s-.68.41-1.28.41h-7.01c-.54 0-1.01-.13-1.28-.4s-.41-.68-.41-1.29l-.01-12.68c0-.34 0-.68.07-1.09h4.18v-1.16l-3.98.01c.07-.21.07-.48.13-.68l6.74-.01v-.95l-4.45.01c.34-1.16.74-2.38 1.28-3.8l4.1-10.99c.2-.55.47-.96.88-1.23.4-.27.94-.4 1.55-.4l12.87-.02c.6 0 1.08.14 1.48.41.4.27.67.68.88 1.22l4.19 10.92c.54 1.42 1.01 2.71 1.28 3.79h2.56zm-13.28 1.03-2.23-7.19c-.13-.27-.26-.47-.4-.61a.619.619 0 0 0-.47-.2h-1.21a.77.77 0 0 0-.48.2c-.13.14-.27.34-.4.62l-2.22 7.19 7.41-.01zm-57.07-.96v1.01l-4.52.01c.07.27.07.47.14.68l1.48-.01v1.16h-1.35c.07.34.07.74.07 1.08l.01 12.69c0 .54-.13 1.01-.4 1.29-.27.27-.67.4-1.28.4l-7.21.01c-.68 0-1.15-.13-1.42-.4-.33-.28-.47-.68-.47-1.29l-.01-6.72-8.42.01.01 6.71c0 .55-.14 1.02-.41 1.29-.27.28-.67.41-1.28.41l-7.01.01c-.53 0-1.01-.14-1.28-.41-.27-.27-.4-.68-.4-1.29l-.01-12.68c0-.34 0-.68.06-1.08l4.18-.01v-1.15h-3.98c.07-.2.07-.47.14-.68h6.74v-.95h-4.45c.33-1.15.74-2.37 1.28-3.8l4.16-10.99c.21-.54.47-.95.88-1.22.4-.27.94-.41 1.55-.41l12.8-.01c.61 0 1.08.13 1.48.4.41.27.68.68.88 1.22l4.19 10.92c.54 1.42 1.01 2.71 1.28 3.8h2.57zm-13.28 1.02-2.23-7.18c-.13-.27-.27-.48-.4-.61-.14-.14-.27-.21-.48-.21h-1.21c-.13.01-.34.07-.47.21-.14.14-.27.34-.41.61l-2.21 7.19 7.41-.01zm-21.3-.99v1.01l-4.31.01c.07.2.07.41.07.68h1.28v1.15H82.3l.01 13.77c0 .54-.13 1.02-.4 1.29s-.67.41-1.28.41l-15.03.01c-3.97 0-6.87-.74-8.83-2.37-1.95-1.55-2.9-4.06-2.9-7.39l-.01-5.69 4.11-.01v-1.15h-4.11v-.68h7.01v-1.09l-4.99.01v-6.45c-.01-3.32.93-5.76 2.89-7.39 1.88-1.56 4.85-2.38 8.82-2.38l11.93-.02c.54 0 1.01.14 1.28.41.27.27.41.68.41 1.29v5.83c0 .55-.13 1.02-.4 1.29s-.67.41-1.28.41l-9.91.01c-1.01 0-1.75.2-2.22.61-.47.41-.74 1.02-.74 1.83l.01 5.63h-2.03l.01 6.04c0 .82.2 1.36.54 1.76.34.34.88.55 1.62.55l4.65-.01-.01-7.53c0-.27 0-.54.07-.74l2.02-.01c.07-.27.2-.47.34-.61.2-.2.47-.34.87-.4v-.07l11.79-.01z" style="fill:#1f2b4e"/></g></g><path id="Layer" d="m52.09 9.07 161.79-.15.15 161.89-161.79.15-.15-161.89z" style="fill:none;stroke:#4f4f4f;stroke-width:1.998"/><path id="Layer" class="shp3" d="M130.99 13.99a5 5 0 0 1-5-4.99c0-2.76 2.23-5 4.99-5 2.76 0 5 2.23 5 4.99 0 2.76-2.23 5-4.99 5zM131.14 175.89c-2.76 0-5-2.23-5-5a4.995 4.995 0 1 1 9.99 0 5 5 0 0 1-4.99 5zM208.96 86.87c0-2.76 2.23-5 4.99-5a5 5 0 0 1 .01 10c-2.76 0-5-2.23-5-5zM47.16 87.02c0-2.76 2.23-5 4.99-5 2.77 0 5 2.23 5 4.99 0 2.77-2.23 5-4.99 5-2.76.01-4.99-2.22-5-4.99z"/></g></g></svg>