<svg width="16" height="16" fill="none" xmlns="http://www.w3.org/2000/svg"><path d="M9.25 12a.74.74 0 0 0 .75-.75V6h2.719a.616.616 0 0 0 .437-1.063L8.406.188a.624.624 0 0 0-.844 0l-4.75 4.75A.616.616 0 0 0 3.25 6H6v5.25c0 .438.313.75.75.75h2.5zm6.75-.25a.76.76 0 0 0-.75-.75H11v.25c0 .969-.813 1.75-1.75 1.75h-2.5C5.781 13 5 12.219 5 11.25V11H.75a.74.74 0 0 0-.75.75v3.5c0 .438.313.75.75.75h14.5a.74.74 0 0 0 .75-.75v-3.5zm-3.875 2.75a.627.627 0 0 1-.625.625.627.627 0 0 1-.625-.625c0-.344.281-.625.625-.625s.625.281.625.625zm2 0a.627.627 0 0 1-.625.625.627.627 0 0 1-.625-.625c0-.344.281-.625.625-.625s.625.281.625.625z" fill="#5B40D7"/></svg>