<svg width="17" height="12" fill="none" xmlns="http://www.w3.org/2000/svg"><path d="M15.72 3.969c-.72.562-1.626 1.25-4.813 3.562-.625.469-1.782 1.5-2.875 1.5-1.125 0-2.25-1.031-2.907-1.5-3.187-2.312-4.093-3-4.812-3.562-.125-.094-.281 0-.281.156V10.5c0 .844.656 1.5 1.5 1.5h13a1.5 1.5 0 0 0 1.5-1.5V4.125c0-.156-.188-.25-.313-.156zM8.031 8c.718.031 1.75-.906 2.28-1.281 4.157-3 4.47-3.282 5.407-4.032a.711.711 0 0 0 .313-.593V1.5c0-.813-.688-1.5-1.5-1.5h-13a1.5 1.5 0 0 0-1.5 1.5v.594c0 .25.093.469.28.594.938.75 1.25 1.03 5.407 4.03C6.25 7.095 7.282 8.032 8.032 8z" fill="#5B40D7"/></svg>