<svg version="1.2" baseProfile="tiny-ps" xmlns="http://www.w3.org/2000/svg" width="115" height="36"><defs><linearGradient id="grd1" gradientUnits="userSpaceOnUse" x1="-2.625" y1="17.738" x2="117.981" y2="17.738"><stop offset="0" stop-color="#5b40d7"/><stop offset="1" stop-color="#e85f62"/></linearGradient><linearGradient id="grd2" gradientUnits="userSpaceOnUse" x1="35.25" y1="20.361" x2="80.885" y2="20.361"><stop offset="0" stop-color="#5b40d7"/><stop offset="1" stop-color="#e85f62"/></linearGradient></defs><style></style><path id="Layer" d="M7 1h101c3.32 0 6 2.68 6 6v22c0 3.32-2.68 6-6 6H7c-3.32 0-6-2.68-6-6V7c0-3.32 2.68-6 6-6z" style="fill:#f2f2f2;stroke:url(#grd1);stroke-linejoin:round;stroke-width:2"/><path id="Layer" d="m48.55 13.28-1.02 2.08-2.3.33c-.4.06-.56.56-.26.86l1.64 1.61-.39 2.26c-.06.41.37.72.73.53L49 19.88l2.03 1.07c.36.19.8-.12.74-.53l-.39-2.26 1.64-1.61c.29-.3.14-.8-.27-.86l-2.28-.33-1.03-2.08c-.17-.36-.71-.37-.89 0zm9 0-1.02 2.08-2.3.33c-.4.06-.56.56-.26.86l1.64 1.61-.39 2.26c-.06.41.37.72.73.53L58 19.88l2.03 1.07c.36.19.8-.12.74-.53l-.39-2.26 1.64-1.61c.29-.3.14-.8-.27-.86l-2.28-.33-1.03-2.08c-.17-.36-.71-.37-.89 0zm9 0-1.02 2.08-2.3.33c-.4.06-.56.56-.26.86l1.64 1.61-.39 2.26c-.06.41.37.72.73.53L67 19.88l2.03 1.07c.36.19.8-.12.74-.53l-.39-2.26 1.64-1.61c.29-.3.14-.8-.27-.86l-2.28-.33-1.03-2.08c-.17-.36-.71-.37-.89 0z" style="fill:url(#grd2)"/></svg>