<svg version="1.2" baseProfile="tiny-ps" xmlns="http://www.w3.org/2000/svg" width="115" height="36"><defs><linearGradient id="grd1" gradientUnits="userSpaceOnUse" x1="-2.625" y1="17.738" x2="117.981" y2="17.738"><stop offset="0" stop-color="#5b40d7"/><stop offset="1" stop-color="#e85f62"/></linearGradient><linearGradient id="grd2" gradientUnits="userSpaceOnUse" x1="99.458" y1="27.377" x2="113.583" y2="27.377"><stop offset="0" stop-color="#5b40d7"/><stop offset="1" stop-color="#e85f62"/></linearGradient><linearGradient id="grd3" gradientUnits="userSpaceOnUse" x1="102.667" y1="10.934" x2="111.359" y2="10.934"><stop offset="0" stop-color="#5b40d7"/><stop offset="1" stop-color="#e85f62"/></linearGradient></defs><style></style><path id="Layer" d="M7 1h101c3.32 0 6 2.68 6 6v22c0 3.32-2.68 6-6 6H7c-3.32 0-6-2.68-6-6V7c0-3.32 2.68-6 6-6z" style="fill:#f2f2f2;stroke:url(#grd1);stroke-linejoin:round;stroke-width:2"/><path id="Layer" d="M113 29c0 2.76-2.24 5-5 5h-8V2h8c2.76 0 5 2.24 5 5v22z" style="fill:#e0e0e0"/><path id="Layer" fill-rule="evenodd" d="M106.12 24.65c0 .78-.16 1.39-.49 1.8-.32.42-.8.63-1.43.63-.62 0-1.09-.21-1.42-.62-.33-.4-.5-.99-.5-1.75v-1.05c0-.79.16-1.4.49-1.81.33-.41.81-.62 1.42-.62.62 0 1.1.21 1.43.62.32.4.49.99.5 1.75v1.05zm-1.13-1.15c0-.47-.06-.81-.19-1.03-.13-.21-.33-.32-.61-.32-.26 0-.46.1-.58.31-.13.2-.2.52-.2.95v1.39c0 .46.06.81.18 1.03.13.23.33.34.61.34.28 0 .48-.11.6-.33.12-.21.19-.54.19-.99V23.5zm5.73 1.15c0 .78-.17 1.39-.49 1.8-.33.42-.81.63-1.43.63-.62 0-1.1-.21-1.42-.62-.33-.4-.5-.99-.51-1.75v-1.05c0-.79.16-1.4.49-1.81.33-.41.81-.62 1.43-.62.62 0 1.09.21 1.42.62.33.4.5.99.51 1.75v1.05zm-1.13-1.15c0-.47-.07-.81-.2-1.03-.13-.21-.33-.32-.6-.32-.27 0-.46.1-.59.31-.13.2-.19.52-.2.95v1.39c0 .46.06.81.19 1.03.12.23.33.34.61.34.27 0 .47-.11.59-.33.13-.21.19-.54.2-.99V23.5z" style="fill:url(#grd2)"/><path id="Layer" d="M103.5 7.5h7v7h-7v-7z" style="fill:none;stroke:url(#grd3)"/></svg>