<svg version="1.2" baseProfile="tiny-ps" xmlns="http://www.w3.org/2000/svg" width="115" height="36"><defs><linearGradient id="grd1" gradientUnits="userSpaceOnUse" x1="-2.625" y1="17.738" x2="117.981" y2="17.738"><stop offset="0" stop-color="#5b40d7"/><stop offset="1" stop-color="#e85f62"/></linearGradient><linearGradient id="grd2" gradientUnits="userSpaceOnUse" x1="1.458" y1="27.377" x2="15.583" y2="27.377"><stop offset="0" stop-color="#5b40d7"/><stop offset="1" stop-color="#e85f62"/></linearGradient><linearGradient id="grd3" gradientUnits="userSpaceOnUse" x1="4.667" y1="10.934" x2="13.359" y2="10.934"><stop offset="0" stop-color="#5b40d7"/><stop offset="1" stop-color="#e85f62"/></linearGradient></defs><style></style><path id="Layer" d="M7 1h101c3.32 0 6 2.68 6 6v22c0 3.32-2.68 6-6 6H7c-3.32 0-6-2.68-6-6V7c0-3.32 2.68-6 6-6z" style="fill:#f2f2f2;stroke:url(#grd1);stroke-linejoin:round;stroke-width:2"/><path id="Layer" d="M2 7c0-2.76 2.24-5 5-5h8v32H7c-2.76 0-5-2.24-5-5V7z" style="fill:#e0e0e0"/><path id="Layer" d="M10.24 24.68H7.99V27H6.82v-5.69h3.7v.95H7.99v1.47h2.25v.95z" style="fill:url(#grd2)"/><path id="Layer" d="M9 14.5c-1.94 0-3.5-1.56-3.5-3.5S7.06 7.5 9 7.5s3.5 1.56 3.5 3.5-1.56 3.5-3.5 3.5z" style="fill:none;stroke:url(#grd3)"/></svg>