<svg version="1.2" baseProfile="tiny-ps" xmlns="http://www.w3.org/2000/svg" width="115" height="36"><defs><linearGradient id="grd1" gradientUnits="userSpaceOnUse" x1="-2.625" y1="17.738" x2="117.981" y2="17.738"><stop offset="0" stop-color="#5b40d7"/><stop offset="1" stop-color="#e85f62"/></linearGradient><linearGradient id="grd2" gradientUnits="userSpaceOnUse" x1="25.5" y1="22.984" x2="38.538" y2="22.984"><stop offset="0" stop-color="#5b40d7"/><stop offset="1" stop-color="#e85f62"/></linearGradient><linearGradient id="grd3" gradientUnits="userSpaceOnUse" x1="58.5" y1="22.984" x2="71.538" y2="22.984"><stop offset="0" stop-color="#5b40d7"/><stop offset="1" stop-color="#e85f62"/></linearGradient><linearGradient id="grd4" gradientUnits="userSpaceOnUse" x1="42.5" y1="22.984" x2="55.538" y2="22.984"><stop offset="0" stop-color="#5b40d7"/><stop offset="1" stop-color="#e85f62"/></linearGradient><linearGradient id="grd5" gradientUnits="userSpaceOnUse" x1="75.5" y1="22.984" x2="88.538" y2="22.984"><stop offset="0" stop-color="#5b40d7"/><stop offset="1" stop-color="#e85f62"/></linearGradient></defs><style></style><path id="Layer" d="M7 1h101c3.32 0 6 2.68 6 6v22c0 3.32-2.68 6-6 6H7c-3.32 0-6-2.68-6-6V7c0-3.32 2.68-6 6-6z" style="fill:#f2f2f2;stroke:url(#grd1);stroke-linejoin:round;stroke-width:2"/><path id="Layer" d="M26 22h12v2H26v-2z" style="fill:url(#grd2)"/><path id="Layer" d="M59 22h12v2H59v-2z" style="fill:url(#grd3)"/><path id="Layer" d="M43 22h12v2H43v-2z" style="fill:url(#grd4)"/><path id="Layer" d="M76 22h12v2H76v-2z" style="fill:url(#grd5)"/></svg>