<svg version="1.2" baseProfile="tiny-ps" xmlns="http://www.w3.org/2000/svg" width="115" height="36"><defs><linearGradient id="grd1" gradientUnits="userSpaceOnUse" x1="-2.625" y1="17.738" x2="117.981" y2="17.738"><stop offset="0" stop-color="#5b40d7"/><stop offset="1" stop-color="#e85f62"/></linearGradient><linearGradient id="grd2" gradientUnits="userSpaceOnUse" x1="37.489" y1="21.864" x2="8.827" y2="28.12"><stop offset="0" stop-color="#e85f62"/><stop offset="1" stop-color="#5b40d7"/></linearGradient><linearGradient id="grd3" gradientUnits="userSpaceOnUse" x1="12.045" y1="27.507" x2="113.251" y2="5.417"><stop offset="0" stop-color="#5b40d7"/><stop offset="1" stop-color="#e85f62"/></linearGradient></defs><style></style><path id="Layer" d="M7 1h101c3.32 0 6 2.68 6 6v22c0 3.32-2.68 6-6 6H7c-3.32 0-6-2.68-6-6V7c0-3.32 2.68-6 6-6z" style="fill:#f2f2f2;stroke:url(#grd1);stroke-linejoin:round;stroke-width:2"/><path id="Layer" d="M4.58 29.23a.5.5 0 0 0 .15.69l3.79 2.43a.5.5 0 0 0 .69-.15.51.51 0 0 0-.15-.7l-3.37-2.15 2.16-3.37a.5.5 0 0 0-.15-.69.51.51 0 0 0-.7.15l-2.42 3.79zm31.81-7.13-31.5 6.91.22.98 31.49-6.92-.21-.97z" style="fill:url(#grd2)"/><path id="Layer" d="M109.42 6.27c.15-.24.08-.55-.15-.69l-3.81-2.41a.513.513 0 0 0-.69.16c-.14.23-.08.54.16.69l3.38 2.14-2.14 3.38c-.14.23-.07.54.16.69.23.14.54.08.69-.16l2.4-3.8zM16.11 27.49l93-21-.22-.98-93 21 .22.98z" style="fill:url(#grd3)"/></svg>